<svg version="1.1" xmlns="http://www.w3.org/2000/svg" x="0" y="0" width="530" height="140" viewBox="0 0 530 140" xml:space="preserve"><path fill="#353535" d="M276 70.2c-4.398-1-7.5-3.7-7.5-8.7 0-5.4 4.602-8.5 9.2-8.5 5.3 0 9.2 3.9 9.2 8.5v.6c0 .5-.4.9-.9.9h-2.5c-.5 0-.898-.4-.898-.9v-.6c0-3-2.602-4.2-4.9-4.2-2.898 0-4.898 1.6-4.898 4.2 0 4 3.8 4.4 6.7 5.1 5.1 1.3 8.3 4.2 8.3 9.4 0 5.8-4.898 9.4-10.1 9.4-5.8 0-10.102-4.3-10.102-9.4v-.7c0-.5.398-.897.898-.897h2.5c.5 0 .9.398.9.898v.7c0 2.9 2.397 5.102 5.8 5.102 3.4 0 5.8-2.2 5.8-5.102 0-4.2-3-4.8-7.5-5.8M328.5 76c0 5-4.2 9.4-10.1 9.4-5.4 0-9.3-3.602-10.103-9.4-.397-3.7-.397-10 0-13.6.603-4.9 4.2-9.4 10.103-9.4 5.397 0 10.1 3.5 10.1 9.4v.6c0 .5-.398.9-.898.9h-2.5c-.5 0-.9-.4-.9-.9v-.6c0-2.7-2.3-5.1-5.8-5.1-2.9 0-5.4 1.8-5.8 5.1-.4 3.7-.4 9.9 0 13.6.398 2.602 2.3 5.102 5.8 5.102 3 0 5.8-1.8 5.8-5.102v-.6c0-.5.4-.9.9-.9h2.5c.5 0 .898.4.898.9v.6zM354.6 72.4c-.3 0-.398.2-.398.5v11.3c0 .5-.4.9-.9.9h-2.5c-.5 0-.897-.4-.897-.9v-30c0-.5.397-.9.897-.9h8c5.2 0 9.4 4.3 9.4 9.5 0 3.4-1.9 6.5-4.6 8.1-.803.5-1.2.9-.803 1.702l5.3 11c.302.698 0 1.397-.8 1.397h-2.6c-.7 0-1-.398-1.3-.898L358.1 72.9c-.102-.3-.4-.5-.802-.5H354.6zm0-14.8c-.3 0-.398.2-.398.5v9.5c0 .3.2.5.4.5h4.197c2.8 0 5.102-2.4 5.102-5.2 0-2.9-2.3-5.2-5.103-5.2h-4.2v-.1zM393.8 80.3c0 .302.2.5.4.5h10.7c.5 0 .897.4.897.9v2.5c0 .5-.397.9-.897.9h-14.5c-.5 0-.9-.4-.9-.9v-30c0-.5.4-.9.9-.9h14.4c.5 0 .9.4.9.9v2.5c0 .5-.4.9-.9.9h-10.6c-.3 0-.4.2-.4.5v8.2c0 .3.2.5.4.5h10.1c.5 0 .9.4.9.9v2.5c0 .5-.4.9-.9.9h-10.1c-.3 0-.4.197-.4.5v8.7zM431.2 80.3c0 .302.2.5.4.5h10.7c.5 0 .9.4.9.9v2.5c0 .5-.4.9-.9.9h-14.5c-.5 0-.898-.4-.898-.9v-30c0-.5.397-.9.897-.9h14.4c.5 0 .898.4.898.9v2.5c0 .5-.4.9-.9.9H431.6c-.302 0-.4.2-.4.5v8.2c0 .3.2.5.4.5h10.1c.5 0 .9.4.9.9v2.5c0 .5-.4.9-.9.9h-10.1c-.302 0-.4.197-.4.5v8.7zM478.5 85.1c-.5 0-.7-.102-.898-.8L468.7 61.9c-.1-.2-.4-.1-.4.1v22.2c0 .5-.397.9-.897.9h-2.3c-.5 0-.9-.4-.9-.9v-30c0-.5.4-.9.9-.9h3.697c.5 0 .7.1.9.8l8.8 22.4c.102.2.4.102.4-.1V54.2c0-.5.397-.9.897-.9h2.302c.5 0 .897.4.897.9v30c0 .5-.398.9-.898.9h-3.6zM1.9 59.8c-.5 0-.9-.4-.9-.9v-4.5c0-.5.4-.9.9-.9h19c.5 0 .9.4.9.9v4.5c0 .5-.4.9-.9.9h-6c-.3 0-.4.2-.4.5v23.802c0 .5-.4.897-.9.897H9.2c-.5 0-.9-.398-.9-.898V60.2c0-.3-.2-.5-.4-.5h-6v.1zM44.9 72.3c-.3 0-.4.2-.4.5V84c0 .5-.4.9-.9.9h-4.4c-.5 0-.9-.4-.9-.9V54.4c0-.5.4-.9.9-.9h9.7c5.1 0 9.3 4.3 9.3 9.4 0 3.5-1.5 5.8-4.6 8-.6.5-.6.8-.3 1.5L58 83.6c.3.7 0 1.398-.8 1.398h-4.6c-.7 0-1.1-.398-1.3-.898L46.8 73c-.1-.2-.3-.6-.8-.6h-1.1v-.1zm0-12.5c-.3 0-.4.2-.4.5v5.4c0 .3.2.4.4.4h4c1.7 0 3.1-1.4 3.1-3.1 0-1.7-1.4-3.1-3.1-3.1h-4v-.1zM80 84.3c-.1.4-.4.7-.8.7h-4.7c-.7 0-1-.5-.9-.898l7.9-29.9c.1-.398.4-.7.8-.7h5.9c.4 0 .8.302.8.7l7.9 29.9c.1.398-.2.898-.9.898h-4.7c-.4 0-.7-.3-.8-.7l-1.4-4.6c-.1-.4-.3-.7-.7-.7h-6.7c-.4 0-.6.3-.7.7l-1 4.6zm2.9-12.1c-.1.4.1.5.4.5h4.1c.3 0 .4-.1.4-.5l-2.1-10.8c0-.1-.1-.2-.2-.2h-.1c-.1 0-.2 0-.2.2l-2.3 10.8zM132.7 84c0 .5-.4.9-.9.9h-5.2c-.8 0-1.1-.4-1.2-.8l-6-15.802c-.1-.3-.4-.2-.4.1V84c0 .5-.4.9-.9.9h-4.4c-.5 0-.9-.4-.9-.9V54.4c0-.5.4-.9.9-.9h5.3c.7 0 1 .4 1.1.8l6.1 17.1c.1.302.4.202.4-.1V54.4c0-.5.4-.9.9-.9h4.4c.5 0 .9.4.9.9V84h-.1zM159.5 72c-5.5-1.3-9.9-3.7-9.9-9.5 0-5.3 4.3-9.5 10.1-9.5 5.9 0 10.2 4.2 10.2 9.5v.7c0 .5-.4.9-.9.9h-4.5c-.5 0-.9-.4-.9-.9v-.7c0-1.8-1.4-3.4-3.9-3.4s-3.9 1.3-3.9 3.1c0 1.7 1.6 2.8 3.9 3.2 6.2 1.3 10.7 3.9 10.7 10.1 0 5.802-4.5 9.9-10.8 9.9-6.1 0-10.5-4.4-10.5-9.9v-1.3c0-.5.4-.898.9-.898h4.5c.5 0 .9.4.9.9v1.3c0 2.102 1.6 3.7 4.3 3.7 2.7 0 4.4-1.6 4.4-3.7 0-1.802-1.2-2.7-4.6-3.502M192.9 60c0-.3-.2-.5-.4-.5h-4.4c-.5 0-.9-.4-.9-.9v-4.3c0-.5.4-.9.9-.9H204c.5 0 .9.4.9.9v4.3c0 .5-.4.9-.9.9h-4.4c-.3 0-.4.2-.4.5v18.4c0 .3.2.398.4.398h4.9c.5 0 .9.4.9.9v4.3c0 .5-.4.9-.9.9h-16.8c-.5 0-.9-.4-.9-.9v-4.3c0-.5.4-.9.9-.9h4.9c.3 0 .4-.2.4-.398l-.1-18.4zM222.4 59.8c-.5 0-.9-.4-.9-.9v-4.5c0-.5.4-.9.9-.9h19c.5 0 .9.4.9.9v4.5c0 .5-.4.9-.9.9h-6c-.3 0-.4.2-.4.5v23.802c0 .5-.4.897-.9.897h-4.4c-.5 0-.9-.398-.9-.898V60.2c0-.3-.198-.5-.398-.5h-6v.1h-.002z"/><path fill="none" stroke="#2BA5DC" stroke-width="2" stroke-miterlimit="10" d="M231.7 36.3V3H527v132.4H231.7v-33.3"/></svg>